<?xml version="1.0" standalone="no"?>
<!DOCTYPE svg PUBLIC "-//W3C//DTD SVG 20010904//EN"
 "http://www.w3.org/TR/2001/REC-SVG-20010904/DTD/svg10.dtd">
<svg version="1.0" xmlns="http://www.w3.org/2000/svg"
 width="500.000000pt" height="500.000000pt" viewBox="0 0 500.000000 500.000000"
 preserveAspectRatio="xMidYMid meet">

<g transform="translate(0.000000,500.000000) scale(0.100000,-0.100000)"
fill="#000000" stroke="none">
<path d="M2354 3535 c-443 -96 -681 -584 -479 -984 90 -180 236 -304 425 -363
62 -19 96 -23 200 -23 108 1 136 5 205 28 291 97 485 360 485 656 0 120 -22
210 -76 321 -38 77 -62 110 -128 175 -66 66 -98 89 -176 127 -153 75 -306 96
-456 63z m298 -40 c197 -52 350 -177 438 -360 51 -108 65 -171 64 -295 -1
-177 -62 -319 -194 -450 -144 -144 -338 -213 -533 -189 -158 19 -283 78 -389
182 -74 72 -122 147 -161 251 -29 76 -31 89 -31 221 -1 122 2 148 23 205 38
106 80 170 166 257 66 66 98 90 166 122 46 23 109 47 139 55 74 20 237 20 312
1z"/>
<path d="M2295 3329 c-52 -13 -99 -45 -132 -93 -38 -53 -44 -147 -14 -208 29
-60 319 -348 351 -348 27 0 318 285 344 337 40 80 28 178 -30 243 -71 78 -170
95 -268 45 l-55 -28 -26 21 c-15 12 -43 24 -64 28 -20 3 -43 7 -51 9 -8 1 -33
-1 -55 -6z m145 -41 c51 -25 66 -29 79 -19 9 6 34 20 56 31 157 77 328 -93
260 -258 -19 -44 -311 -342 -337 -342 -23 0 -293 263 -323 314 -31 54 -39 103
-25 155 21 80 110 150 191 151 21 0 63 -13 99 -32z"/>
<path d="M2450 3115 c0 -33 -2 -35 -35 -35 -35 0 -35 0 -35 -45 0 -45 0 -45
35 -45 33 0 35 -2 35 -35 0 -35 0 -35 45 -35 45 0 45 0 45 35 0 34 1 35 40 35
l40 0 0 45 0 45 -40 0 c-39 0 -40 1 -40 35 0 35 0 35 -45 35 -45 0 -45 0 -45
-35z m78 -17 c3 -36 5 -38 38 -38 30 0 34 -3 34 -25 0 -22 -4 -25 -35 -25 -34
0 -35 -1 -35 -40 0 -38 -2 -40 -30 -40 -28 0 -30 2 -30 40 0 39 -1 40 -35 40
-31 0 -35 3 -35 25 0 22 4 25 35 25 34 0 35 1 35 41 0 38 1 40 28 37 23 -3 27
-8 30 -40z"/>
<path d="M1977 2924 c-13 -14 -7 -56 25 -166 32 -107 35 -113 108 -196 l75
-86 -4 -63 -3 -63 146 0 146 0 0 54 c0 36 -4 56 -14 59 -8 3 -16 30 -21 74
-10 95 -27 128 -83 154 -26 13 -64 34 -84 47 -37 24 -44 24 -121 10 -14 -2
-29 18 -65 87 -39 74 -52 91 -72 93 -14 2 -29 0 -33 -4z m96 -103 c35 -66 69
-113 118 -163 38 -39 72 -68 75 -65 4 3 -22 34 -57 68 l-63 62 31 15 c26 12
34 12 55 1 14 -8 53 -29 86 -47 34 -17 68 -42 76 -55 15 -22 37 -163 28 -172
-3 -3 -49 -5 -103 -5 l-97 0 -85 98 c-83 95 -85 99 -122 215 -29 95 -34 121
-24 133 6 8 17 13 23 11 6 -1 33 -45 59 -96z m377 -411 l0 -40 -125 0 -125 0
0 40 0 40 125 0 125 0 0 -40z"/>
<path d="M2915 2841 c-47 -95 -60 -110 -78 -92 -19 19 -80 12 -117 -12 -19
-12 -52 -31 -73 -42 -60 -31 -70 -49 -84 -143 -7 -48 -17 -88 -23 -90 -5 -2
-10 -28 -10 -58 l0 -54 140 0 140 0 0 63 0 62 75 85 c77 88 89 112 136 292 15
54 3 78 -37 78 -20 0 -31 -15 -69 -89z m95 45 c0 -11 -15 -69 -34 -127 -32
-102 -36 -110 -117 -203 l-84 -96 -102 0 c-76 0 -103 3 -103 13 1 41 22 150
32 167 7 11 33 30 58 42 25 12 56 30 70 39 38 27 72 32 95 14 19 -15 18 -17
-42 -74 -65 -60 -76 -90 -17 -43 52 41 128 139 164 212 18 36 37 70 42 77 14
17 38 4 38 -21z m-212 -478 l3 -38 -130 0 -131 0 0 33 c0 19 3 37 7 41 4 3 61
5 127 4 l121 -3 3 -37z"/>
<path d="M1670 1871 c0 -104 1 -111 20 -111 17 0 19 8 22 73 3 76 5 75 39 -16
27 -75 45 -73 73 10 12 34 24 65 29 69 4 4 7 -25 7 -64 0 -70 1 -72 25 -72
l25 0 0 110 0 110 -38 0 c-39 0 -39 0 -57 -60 -10 -33 -22 -60 -26 -60 -4 0
-16 26 -26 58 -19 54 -21 57 -56 60 l-37 3 0 -110z"/>
<path d="M2000 1870 l0 -110 75 0 c68 0 75 2 75 20 0 17 -7 20 -50 20 -46 0
-50 2 -50 24 0 22 5 25 42 28 31 2 44 8 46 21 3 14 -4 17 -42 17 -42 0 -46 2
-46 25 0 23 3 25 50 25 43 0 50 3 50 20 0 18 -7 20 -75 20 l-75 0 0 -110z"/>
<path d="M2230 1869 l0 -112 77 5 c95 6 103 15 103 113 0 94 -11 105 -108 105
l-72 0 0 -111z m128 13 c3 -60 -8 -82 -44 -82 -23 0 -24 3 -24 71 l0 70 33 -3
c31 -3 32 -4 35 -56z"/>
<path d="M2490 1870 l0 -110 25 0 25 0 0 110 0 110 -25 0 -25 0 0 -110z"/>
<path d="M2630 1870 c0 -110 0 -110 24 -110 22 0 25 5 28 43 3 41 4 42 41 45
l37 3 0 -45 c0 -42 2 -46 25 -46 l25 0 0 110 0 110 -25 0 c-23 0 -25 -4 -25
-46 l0 -45 -37 3 c-37 3 -38 4 -41 46 -3 37 -6 42 -28 42 -24 0 -24 0 -24
-110z"/>
<path d="M2900 1890 c0 -111 13 -130 88 -130 74 0 81 10 89 123 l6 97 -31 0
-31 0 -3 -87 -3 -88 -30 0 -30 0 -3 88 c-3 85 -3 87 -27 87 -25 0 -25 -1 -25
-90z"/>
<path d="M3160 1870 l0 -110 68 0 c81 0 112 17 112 60 0 18 -7 34 -19 41 -18
12 -18 12 0 30 23 23 24 52 3 73 -11 12 -36 16 -90 16 l-74 0 0 -110z m125 60
c10 -16 -15 -40 -41 -40 -19 0 -24 5 -24 25 0 21 5 25 29 25 17 0 33 -5 36
-10z m-14 -80 c36 -20 17 -50 -32 -50 -14 0 -19 7 -19 30 0 32 16 38 51 20z"/>
<path d="M2053 1630 c-19 -8 -23 -17 -23 -58 0 -56 12 -72 55 -72 43 0 55 16
55 72 0 43 -3 50 -26 58 -30 12 -32 12 -61 0z m55 -62 c-2 -35 -7 -43 -23 -43
-16 0 -21 8 -23 43 -3 39 -2 42 23 42 25 0 26 -3 23 -42z"/>
<path d="M2274 1626 c-24 -18 -27 -101 -4 -116 20 -13 70 -13 70 0 0 6 -8 10
-19 10 -26 0 -43 24 -39 57 2 22 9 29 31 31 30 4 36 17 11 26 -22 9 -28 8 -50
-8z"/>
<path d="M2680 1633 c-23 -9 -30 -24 -30 -68 0 -48 14 -65 51 -65 52 0 59 8
59 66 0 42 -4 55 -19 64 -21 11 -37 12 -61 3z m56 -47 c7 -31 -12 -68 -34 -64
-12 2 -18 15 -20 46 -3 39 -1 42 22 42 19 0 27 -7 32 -24z"/>
<path d="M3118 1633 c-40 -10 -32 -70 10 -75 36 -4 36 -32 0 -36 -39 -5 -35
-22 5 -22 45 0 59 12 55 46 -2 23 -9 30 -32 34 -41 7 -46 30 -7 30 33 0 42 14
15 24 -17 6 -19 6 -46 -1z"/>
<path d="M1810 1565 l0 -65 39 0 c49 0 71 21 71 65 0 57 -7 65 -61 65 l-49 0
0 -65z m78 3 c3 -35 1 -38 -22 -38 -24 0 -26 4 -26 41 0 36 2 40 23 37 18 -2
23 -10 25 -40z"/>
<path d="M2440 1620 c0 -5 9 -10 20 -10 18 0 20 -7 20 -55 0 -42 3 -55 15 -55
12 0 15 13 15 55 0 48 2 55 20 55 11 0 20 5 20 10 0 6 -25 10 -55 10 -30 0
-55 -4 -55 -10z"/>
<path d="M2880 1565 c0 -51 3 -65 15 -65 9 0 15 9 15 25 0 14 6 25 13 25 8 0
19 -11 25 -25 6 -14 19 -25 27 -25 12 0 13 4 6 18 -5 9 -7 38 -4 65 l6 47 -52
0 -51 0 0 -65z m73 39 c11 -11 -5 -34 -24 -34 -12 0 -19 7 -19 20 0 19 28 28
43 14z"/>
</g>
</svg>
