<?xml version="1.0" standalone="no"?>
<!DOCTYPE svg PUBLIC "-//W3C//DTD SVG 20010904//EN"
 "http://www.w3.org/TR/2001/REC-SVG-20010904/DTD/svg10.dtd">
<svg version="1.0" xmlns="http://www.w3.org/2000/svg"
 width="500.000000pt" height="500.000000pt" viewBox="0 0 500.000000 500.000000"
 preserveAspectRatio="xMidYMid meet">

<g transform="translate(0.000000,500.000000) scale(0.100000,-0.100000)"
fill="#000000" stroke="none">
<path d="M2330 3530 c-91 -25 -226 -91 -222 -109 1 -7 -2 -10 -8 -6 -13 8 -42
-14 -34 -26 3 -5 -1 -6 -9 -3 -21 8 -130 -117 -172 -197 -20 -38 -35 -70 -35
-71 1 -2 -4 -16 -10 -33 -19 -47 -39 -174 -39 -240 -1 -100 56 -314 80 -300 5
4 6 0 4 -7 -3 -8 4 -24 15 -36 11 -12 17 -22 13 -22 -4 0 -1 -6 8 -13 9 -7 17
-16 18 -22 6 -27 110 -129 176 -174 100 -67 208 -101 341 -108 101 -6 198 2
190 15 -2 4 14 7 36 8 23 0 43 6 49 15 5 7 9 11 9 7 0 -4 13 -2 30 3 16 6 27
15 24 20 -3 5 1 6 8 4 18 -7 119 59 182 119 27 25 46 46 43 46 -3 0 8 14 24
31 38 41 103 173 95 194 -3 9 -2 14 3 11 18 -12 36 112 35 249 0 131 -2 145
-30 215 -22 55 -35 75 -47 74 -13 -1 -15 2 -8 10 12 15 -26 79 -42 69 -6 -3
-7 -1 -3 5 15 24 -201 221 -225 206 -5 -3 -9 -1 -9 4 0 14 -57 35 -71 26 -7
-4 -10 -3 -5 4 12 20 -93 44 -219 48 -98 3 -133 1 -195 -16z m280 -24 c41 -8
78 -12 83 -9 4 2 7 0 7 -5 0 -9 76 -37 97 -35 7 0 11 -3 8 -7 -3 -4 3 -11 13
-15 69 -26 203 -160 258 -259 17 -31 34 -53 39 -48 4 4 6 2 2 -3 -3 -6 4 -37
15 -70 29 -84 36 -257 14 -348 -34 -144 -155 -320 -276 -399 -72 -47 -147 -84
-190 -93 -19 -4 -39 -11 -45 -15 -16 -12 -267 -5 -298 8 -16 7 -33 10 -38 6
-5 -3 -9 0 -9 5 0 6 -6 11 -12 11 -30 0 -140 62 -201 113 -35 31 -68 54 -71
51 -3 -2 -4 -1 -1 3 7 9 -26 44 -36 37 -5 -3 -6 3 -2 12 5 13 3 15 -7 9 -8 -5
-11 -4 -7 2 3 5 -4 25 -17 44 -26 39 -66 122 -66 139 0 6 -3 9 -7 7 -5 -3 -9
7 -9 21 -1 15 -4 36 -6 47 -25 92 -16 236 19 355 35 114 178 292 284 353 26
15 37 27 33 37 -4 11 -2 12 7 3 14 -14 42 -6 32 10 -3 6 -1 7 6 3 6 -4 33 0
60 9 99 33 213 40 321 21z"/>
<path d="M2606 3332 c-3 -5 1 -9 9 -9 8 0 12 4 9 9 -3 4 -7 8 -9 8 -2 0 -6 -4
-9 -8z"/>
<path d="M2647 3330 c4 -5 33 -18 63 -29 59 -23 89 -14 47 14 -25 16 -126 30
-110 15z"/>
<path d="M2342 3324 c3 -3 29 -11 57 -19 54 -14 77 -6 35 14 -25 11 -102 16
-92 5z"/>
<path d="M2176 3258 c-39 -47 -43 -58 -21 -58 9 0 12 6 8 17 -4 11 -3 14 6 9
7 -5 10 -2 9 5 -2 7 2 13 8 14 17 0 48 35 32 35 -10 0 -9 3 2 10 8 5 10 10 4
10 -6 0 -28 -19 -48 -42z"/>
<path d="M2786 3273 c-6 -14 -5 -15 5 -6 7 7 10 15 7 18 -3 3 -9 -2 -12 -12z"/>
<path d="M2130 3173 c0 -10 4 -14 8 -8 4 6 11 13 16 18 5 4 2 7 -7 7 -10 0
-17 -8 -17 -17z"/>
<path d="M2844 3122 c-2 -74 -41 -139 -162 -261 -127 -129 -174 -165 -203
-158 -16 4 -18 3 -8 -9 15 -19 58 -18 65 1 4 8 10 13 14 10 10 -6 219 211 272
283 33 44 40 62 45 117 5 52 3 65 -8 65 -10 0 -14 -14 -15 -48z"/>
<path d="M2525 3069 c-4 -6 -1 -10 6 -8 44 5 69 -2 69 -20 0 -11 5 -23 10 -26
6 -4 10 8 10 29 0 36 0 36 -44 36 -25 0 -48 -5 -51 -11z"/>
<path d="M2143 3035 c0 -8 4 -12 9 -9 5 3 6 10 3 15 -9 13 -12 11 -12 -6z"/>
<path d="M2380 3000 c0 -5 15 -10 34 -10 33 0 35 -2 38 -37 3 -38 3 -38 51
-41 30 -2 47 1 47 8 0 6 -4 8 -10 5 -5 -3 -10 -2 -10 3 0 5 -13 7 -30 4 -29
-4 -30 -3 -30 37 l0 41 -45 0 c-25 0 -45 -4 -45 -10z"/>
<path d="M2523 2978 c1 -17 9 -34 16 -36 10 -3 13 3 9 25 -4 29 -3 29 36 27
27 -2 35 0 25 7 -8 5 -31 9 -51 9 -36 0 -38 -1 -35 -32z"/>
<path d="M2207 2939 c7 -7 15 -10 18 -7 3 3 -2 9 -12 12 -14 6 -15 5 -6 -5z"/>
<path d="M3005 2918 c-3 -8 -4 -32 -2 -54 2 -21 0 -47 -5 -56 -6 -13 -5 -18 7
-18 11 0 15 9 15 33 -1 17 1 47 4 64 5 33 -10 56 -19 31z"/>
<path d="M2047 2888 c-4 -12 28 -87 42 -98 3 -3 7 -11 9 -18 5 -27 84 -121
122 -146 44 -29 50 -31 50 -16 0 6 -4 10 -9 10 -16 0 -86 75 -89 96 -2 18 2
21 25 18 23 -4 25 -3 8 5 -19 8 -19 9 5 13 14 3 0 6 -30 7 l-56 1 -29 66 c-31
69 -41 82 -48 62z m110 -164 c0 -18 0 -18 -21 5 -17 19 -17 19 1 15 11 -3 20
-12 20 -20z"/>
<path d="M2915 2849 c-11 -16 -1 -19 13 -3 7 8 8 14 3 14 -5 0 -13 -5 -16 -11z"/>
<path d="M2901 2811 c-7 -5 -12 -14 -10 -20 2 -6 10 -2 17 9 14 22 13 23 -7
11z"/>
<path d="M2380 2776 c0 -2 8 -10 18 -17 15 -13 16 -12 3 4 -13 16 -21 21 -21
13z"/>
<path d="M2724 2738 c-19 -23 -19 -23 2 -5 11 9 24 14 29 10 4 -5 5 -2 1 5 -9
16 -10 16 -32 -10z"/>
<path d="M2778 2753 c7 -3 16 -2 19 1 4 3 -2 6 -13 5 -11 0 -14 -3 -6 -6z"/>
<path d="M2810 2752 c0 -6 9 -12 20 -15 29 -7 30 -8 30 -2 0 3 -3 5 -7 6 -5 1
-16 5 -25 10 -11 6 -18 6 -18 1z"/>
<path d="M2257 2739 c7 -7 15 -10 18 -7 3 3 -2 9 -12 12 -14 6 -15 5 -6 -5z"/>
<path d="M2650 2703 c-44 -26 -77 -61 -72 -75 1 -5 -2 -8 -6 -8 -5 0 -9 -21
-11 -47 -1 -32 1 -45 8 -38 5 6 11 32 12 58 3 45 5 49 37 63 35 14 89 60 81
69 -3 2 -25 -8 -49 -22z"/>
<path d="M2270 2716 c0 -2 7 -7 16 -10 8 -3 12 -2 9 4 -6 10 -25 14 -25 6z"/>
<path d="M2310 2699 c0 -5 16 -16 36 -24 43 -18 44 -18 44 -5 0 6 -12 16 -27
22 -39 16 -53 18 -53 7z"/>
<path d="M2035 2670 c-6 -10 15 -50 28 -50 4 0 6 -4 3 -9 -3 -5 13 -26 37 -47
23 -20 52 -53 63 -71 12 -19 24 -31 27 -26 3 5 -18 37 -48 71 -30 34 -62 75
-72 92 -9 16 -21 30 -26 30 -4 0 -5 5 -2 10 3 6 4 10 1 10 -3 0 -7 -4 -11 -10z"/>
<path d="M2947 2663 c-10 -10 -8 -23 4 -23 5 0 8 4 5 9 -4 5 0 12 6 14 7 3 8
6 2 6 -6 1 -14 -2 -17 -6z"/>
<path d="M2775 2649 c-4 -6 -5 -12 -2 -15 2 -3 7 2 10 11 7 17 1 20 -8 4z"/>
<path d="M2424 2576 c1 -8 5 -18 8 -22 4 -3 5 1 4 10 -1 8 -5 18 -8 22 -4 3
-5 -1 -4 -10z"/>
<path d="M2884 2564 c-18 -14 -18 -15 4 -4 12 6 22 13 22 15 0 8 -5 6 -26 -11z"/>
<path d="M2834 2508 l-29 -33 33 29 c30 28 37 36 29 36 -2 0 -16 -15 -33 -32z"/>
<path d="M2192 2457 c-5 -6 -10 -33 -10 -59 l-1 -48 144 0 145 0 0 60 c0 59
-1 60 -25 54 -34 -8 -184 -9 -216 -1 -17 4 -30 2 -37 -6z m260 -29 c3 -7 2
-23 0 -35 -4 -22 -7 -23 -128 -23 l-124 0 0 35 0 35 124 0 c89 0 125 -3 128
-12z"/>
<path d="M2524 2455 c-4 -8 0 -23 7 -32 8 -9 9 -14 3 -10 -8 5 -12 -4 -12 -28
0 -19 5 -35 11 -35 6 0 7 3 4 7 -4 3 -2 12 4 20 9 10 8 13 -2 13 -11 0 -11 2
0 9 12 8 13 15 4 34 -11 23 -10 24 18 22 16 -1 26 1 23 6 -9 15 -54 10 -60 -6z"/>
<path d="M2550 2360 c0 -12 159 -13 178 -1 8 5 -27 9 -82 9 -58 1 -96 -2 -96
-8z"/>
<path d="M2755 2360 c3 -5 18 -10 33 -10 21 0 24 2 12 10 -20 13 -53 13 -45 0z"/>
<path d="M1660 1875 l0 -115 30 0 c29 0 30 2 30 44 0 60 15 66 30 12 9 -34 18
-45 36 -49 21 -4 25 2 41 54 9 32 21 55 25 53 4 -3 8 -30 8 -60 0 -51 1 -54
25 -54 l25 0 0 115 0 115 -39 0 c-40 0 -40 -1 -57 -55 -10 -30 -20 -55 -23
-55 -3 0 -17 25 -30 55 -23 53 -25 55 -62 55 l-39 0 0 -115z"/>
<path d="M1990 1875 l0 -115 85 0 c84 0 85 0 85 25 0 24 -3 25 -55 25 -48 0
-55 2 -55 20 0 17 7 20 45 20 41 0 45 2 45 25 0 23 -4 25 -45 25 -38 0 -45 3
-45 20 0 18 7 20 55 20 52 0 55 1 55 25 0 25 -1 25 -85 25 l-85 0 0 -115z"/>
<path d="M2230 1876 l0 -116 70 0 c98 0 110 13 110 119 0 97 -7 104 -106 109
l-74 4 0 -116z m134 33 c5 -14 6 -42 2 -62 -6 -34 -10 -37 -41 -37 l-35 0 0
66 0 65 32 -3 c25 -2 35 -9 42 -29z"/>
<path d="M2490 1875 l0 -115 30 0 30 0 0 115 0 115 -30 0 -30 0 0 -115z"/>
<path d="M2630 1875 l0 -115 30 0 c29 0 30 2 30 45 0 45 0 45 35 45 35 0 35 0
35 -45 0 -43 1 -45 30 -45 l30 0 0 115 0 115 -30 0 c-29 0 -30 -2 -30 -45 0
-45 0 -45 -35 -45 -35 0 -35 0 -35 45 0 43 -1 45 -30 45 l-30 0 0 -115z"/>
<path d="M3020 1923 c0 -91 -7 -113 -35 -113 -28 0 -35 22 -35 108 0 59 -1 62
-25 62 -25 0 -25 0 -25 -93 0 -114 9 -127 88 -127 80 0 92 17 92 135 l0 95
-30 0 -30 0 0 -67z"/>
<path d="M3160 1874 l0 -116 80 4 c58 2 84 7 90 18 14 21 12 74 -2 88 -9 9 -9
15 0 24 7 7 12 24 12 39 0 42 -32 59 -112 59 l-68 0 0 -116z m120 46 c0 -16
-7 -20 -30 -20 -23 0 -30 4 -30 20 0 16 7 20 30 20 23 0 30 -4 30 -20z m0 -90
c0 -16 -7 -20 -30 -20 -23 0 -30 4 -30 20 0 16 7 20 30 20 23 0 30 -4 30 -20z"/>
<path d="M1810 1570 l0 -70 43 0 c55 0 67 13 67 72 0 54 -15 68 -74 68 l-36 0
0 -70z m70 0 c0 -33 -3 -40 -20 -40 -17 0 -20 7 -20 40 0 33 3 40 20 40 17 0
20 -7 20 -40z"/>
<path d="M2041 1626 c-7 -8 -11 -37 -9 -68 l3 -53 50 0 50 0 3 59 c2 41 -1 62
-10 67 -21 14 -75 10 -87 -5z m69 -56 c0 -36 -2 -40 -25 -40 -22 0 -25 4 -25
40 0 36 3 40 25 40 23 0 25 -4 25 -40z"/>
<path d="M2266 1624 c-19 -19 -22 -97 -3 -111 6 -5 29 -10 50 -12 28 -2 37 1
37 13 0 11 -9 16 -30 16 -28 0 -30 2 -30 40 0 38 2 40 30 40 20 0 30 5 30 15
0 21 -64 20 -84 -1z"/>
<path d="M2440 1625 c0 -8 9 -15 20 -15 18 0 20 -7 20 -55 0 -42 3 -55 15 -55
12 0 15 13 15 55 0 48 2 55 20 55 11 0 20 7 20 15 0 12 -13 15 -55 15 -42 0
-55 -3 -55 -15z"/>
<path d="M2662 1628 c-16 -16 -16 -100 0 -116 7 -7 28 -12 48 -12 47 0 60 15
60 70 0 55 -13 70 -60 70 -20 0 -41 -5 -48 -12z m68 -58 c0 -36 -2 -40 -25
-40 -22 0 -25 4 -25 40 0 36 3 40 25 40 23 0 25 -4 25 -40z"/>
<path d="M2880 1571 c0 -56 3 -71 15 -71 9 0 15 9 15 25 0 18 5 25 20 25 15 0
20 -7 20 -25 0 -15 6 -25 14 -25 14 0 28 85 17 105 -3 6 -6 15 -6 20 0 6 -21
11 -47 13 l-48 3 0 -70z"/>
<path d="M3100 1626 c-21 -26 -8 -60 28 -71 42 -12 41 -25 -3 -25 -25 0 -35
-4 -35 -16 0 -12 10 -14 48 -12 46 3 47 3 50 40 3 33 1 37 -24 40 -40 4 -43
28 -5 28 21 0 31 5 31 15 0 20 -73 21 -90 1z"/>
</g>
</svg>
