<?xml version="1.0" encoding="UTF-8"?>
<svg version="1.1" xmlns="http://www.w3.org/2000/svg" width="500" height="500">
<path d="M0 0 C165 0 330 0 500 0 C500 165 500 330 500 500 C335 500 170 500 0 500 C0 335 0 170 0 0 Z " fill="#FEFEFE" transform="translate(0,0)"/>
<path d="M0 0 C15.91815021 10.82624566 28.33711642 26.05958038 32.24487305 45.2800293 C35.33387539 66.21933012 31.80882082 85.21518863 19.65234375 102.578125 C8.95612075 116.53727523 -7.77304734 127.28570966 -25.38671875 129.77734375 C-45.96662618 131.62901591 -64.15517215 128.70092811 -80.51171875 115.26953125 C-94.99801788 102.83211807 -104.4240964 86.96742897 -106.38671875 67.77734375 C-107.89355475 47.32742658 -102.5483005 29.07922881 -89.20703125 13.1796875 C-66.26329963 -11.15571309 -29.11154361 -17.36090537 0 0 Z " fill="#FAFDFC" transform="translate(286.38671875,154.22265625)"/>
<path d="M0 0 C15.91815021 10.82624566 28.33711642 26.05958038 32.24487305 45.2800293 C35.33387539 66.21933012 31.80882082 85.21518863 19.65234375 102.578125 C8.95612075 116.53727523 -7.77304734 127.28570966 -25.38671875 129.77734375 C-45.96662618 131.62901591 -64.15517215 128.70092811 -80.51171875 115.26953125 C-94.99801788 102.83211807 -104.4240964 86.96742897 -106.38671875 67.77734375 C-107.89355475 47.32742658 -102.5483005 29.07922881 -89.20703125 13.1796875 C-66.26329963 -11.15571309 -29.11154361 -17.36090537 0 0 Z M-57.38671875 -2.22265625 C-58.21300781 -1.96742188 -59.03929687 -1.7121875 -59.890625 -1.44921875 C-76.39441668 4.3257838 -88.11738113 16.83395897 -96.38671875 31.77734375 C-104.19066839 48.7073239 -104.5818532 66.29757494 -98.38671875 83.77734375 C-91.9348537 100.34531243 -79.99953644 112.75813016 -64.01171875 120.58984375 C-48.35254055 127.14587875 -29.27568642 128.56393273 -13.2890625 122.21484375 C5.47150232 114.21864057 17.55576271 101.34331823 25.546875 82.5859375 C30.7480441 69.47102785 30.73389358 51.7309618 25.8046875 38.5234375 C25.41152344 37.61722656 25.01835937 36.71101563 24.61328125 35.77734375 C24.06994141 34.46443359 24.06994141 34.46443359 23.515625 33.125 C20.53002329 26.55667623 16.34410197 21.18530322 11.61328125 15.77734375 C11.08089844 15.14957031 10.54851562 14.52179688 10 13.875 C-0.69723348 2.16909438 -17.39994819 -4.55814445 -33.05078125 -5.42578125 C-41.64206889 -5.52745329 -49.14671748 -4.94173845 -57.38671875 -2.22265625 Z " fill="#119783" transform="translate(286.38671875,154.22265625)"/>
<path d="M0 0 C4.55555556 0.55555556 4.55555556 0.55555556 6 2 C6.79296558 13.57424763 2.75147636 26.39810045 -4.61621094 35.30053711 C-6.99829158 37.96062209 -9.44787327 40.50136095 -12 43 C-15.62053326 46.1839129 -15.62053326 46.1839129 -15 59 C-24.9 59 -34.8 59 -45 59 C-45 55.04 -45 51.08 -45 47 C-44.01 47 -43.02 47 -42 47 C-41.97421875 46.07058594 -41.9484375 45.14117187 -41.921875 44.18359375 C-41.33601901 31.41459611 -41.33601901 31.41459611 -38.71484375 27.52734375 C-34.47834906 23.75406488 -29.04343423 21.49006376 -24 19 C-23.67 18.67 -23.34 18.34 -23 18 C-21.5653041 17.90105545 -20.12559603 17.87029265 -18.6875 17.875 C-17.51767578 17.87113281 -17.51767578 17.87113281 -16.32421875 17.8671875 C-14.08748461 17.99500088 -12.14733021 18.38086131 -10 19 C-9.79375 18.236875 -9.5875 17.47375 -9.375 16.6875 C-7.2062158 10.8712151 -4.43178004 4.43178004 0 0 Z " fill="#F9FCFC" transform="translate(297,206)"/>
<path d="M0 0 C4.31307379 1.87004805 5.51085972 5.62633379 7.48828125 9.72265625 C7.89498047 10.52896484 8.30167969 11.33527344 8.72070312 12.16601562 C9.72192229 14.15667491 10.70588542 16.15409842 11.67578125 18.16015625 C12.80113281 18.05574219 12.80113281 18.05574219 13.94921875 17.94921875 C22.34629689 17.50504081 26.92639858 19.35253705 33.67578125 24.16015625 C34.53300781 24.63839844 35.39023438 25.11664063 36.2734375 25.609375 C38.92411303 27.32046148 40.17257969 28.38644687 41.67578125 31.16015625 C42.20009458 33.95275558 42.59232731 36.59621257 42.86328125 39.41015625 C42.98606445 40.52777344 42.98606445 40.52777344 43.11132812 41.66796875 C43.31070119 43.49750981 43.49476599 45.32870776 43.67578125 47.16015625 C44.33578125 47.16015625 44.99578125 47.16015625 45.67578125 47.16015625 C45.67578125 51.12015625 45.67578125 55.08015625 45.67578125 59.16015625 C36.10578125 59.16015625 26.53578125 59.16015625 16.67578125 59.16015625 C16.18078125 52.72515625 16.18078125 52.72515625 15.67578125 46.16015625 C14.00461448 42.97614398 14.00461448 42.97614398 11.48828125 40.91015625 C10.67359375 40.09804687 9.85890625 39.2859375 9.01953125 38.44921875 C8.24609375 37.69382813 7.47265625 36.9384375 6.67578125 36.16015625 C1.59088738 30.49743353 -0.55725383 24.06970512 -2.76171875 16.91015625 C-3.03330811 16.03375488 -3.30489746 15.15735352 -3.5847168 14.25439453 C-5.90516371 6.21870151 -5.90516371 6.21870151 -4.32421875 2.16015625 C-2.32421875 0.16015625 -2.32421875 0.16015625 0 0 Z " fill="#F9FCFB" transform="translate(201.32421875,205.83984375)"/>
<path d="M0 0 C4.55555556 0.55555556 4.55555556 0.55555556 6 2 C6.79296558 13.57424763 2.75147636 26.39810045 -4.61621094 35.30053711 C-6.99829158 37.96062209 -9.44787327 40.50136095 -12 43 C-15.62053326 46.1839129 -15.62053326 46.1839129 -15 59 C-24.9 59 -34.8 59 -45 59 C-45 55.04 -45 51.08 -45 47 C-44.01 47 -43.02 47 -42 47 C-41.97421875 46.07058594 -41.9484375 45.14117187 -41.921875 44.18359375 C-41.33601901 31.41459611 -41.33601901 31.41459611 -38.71484375 27.52734375 C-34.47834906 23.75406488 -29.04343423 21.49006376 -24 19 C-23.67 18.67 -23.34 18.34 -23 18 C-21.5653041 17.90105545 -20.12559603 17.87029265 -18.6875 17.875 C-17.51767578 17.87113281 -17.51767578 17.87113281 -16.32421875 17.8671875 C-14.08748461 17.99500088 -12.14733021 18.38086131 -10 19 C-9.79375 18.236875 -9.5875 17.47375 -9.375 16.6875 C-7.2062158 10.8712151 -4.43178004 4.43178004 0 0 Z M0 3 C-0.52207031 4.08796875 -1.04414063 5.1759375 -1.58203125 6.296875 C-7.19296579 17.6299285 -13.49422312 28.75045932 -25 35 C-24.55269531 34.49210937 -24.10539062 33.98421875 -23.64453125 33.4609375 C-20.03713058 29.35357725 -16.47885075 25.21678879 -13 21 C-15.87255344 19.56372328 -17.79603193 19.71386419 -21 20 C-23.5537999 21.16005023 -25.8052288 22.31606088 -28.1875 23.75 C-28.80302734 24.09804687 -29.41855469 24.44609375 -30.05273438 24.8046875 C-34.22241036 27.24415124 -37.17655758 29.45481433 -38.6875 34.125 C-38.98333706 36.84670091 -39.03061456 39.44432742 -39.01953125 42.1796875 C-39.01671143 43.08187012 -39.0138916 43.98405273 -39.01098633 44.91357422 C-39.00736084 45.60209473 -39.00373535 46.29061523 -39 47 C-27.6797542 48.63122769 -27.6797542 48.63122769 -16.95556641 45.83691406 C-13.48200772 42.93799348 -10.74427908 39.48296074 -8.20214844 35.7565918 C-7 34 -7 34 -5.69628906 32.36254883 C-1.94051894 27.57485762 -0.2734345 22.62472632 1.375 16.8125 C1.64699219 15.92369141 1.91898437 15.03488281 2.19921875 14.11914062 C3.89538232 8.59200346 3.89538232 8.59200346 3 3 C2.01 3 1.02 3 0 3 Z " fill="#1C9C89" transform="translate(297,206)"/>
<path d="M0 0 C4.31307379 1.87004805 5.51085972 5.62633379 7.48828125 9.72265625 C7.89498047 10.52896484 8.30167969 11.33527344 8.72070312 12.16601562 C9.72192229 14.15667491 10.70588542 16.15409842 11.67578125 18.16015625 C12.80113281 18.05574219 12.80113281 18.05574219 13.94921875 17.94921875 C22.34629689 17.50504081 26.92639858 19.35253705 33.67578125 24.16015625 C34.53300781 24.63839844 35.39023438 25.11664063 36.2734375 25.609375 C38.92411303 27.32046148 40.17257969 28.38644687 41.67578125 31.16015625 C42.20009458 33.95275558 42.59232731 36.59621257 42.86328125 39.41015625 C42.98606445 40.52777344 42.98606445 40.52777344 43.11132812 41.66796875 C43.31070119 43.49750981 43.49476599 45.32870776 43.67578125 47.16015625 C44.33578125 47.16015625 44.99578125 47.16015625 45.67578125 47.16015625 C45.67578125 51.12015625 45.67578125 55.08015625 45.67578125 59.16015625 C36.10578125 59.16015625 26.53578125 59.16015625 16.67578125 59.16015625 C16.18078125 52.72515625 16.18078125 52.72515625 15.67578125 46.16015625 C14.00461448 42.97614398 14.00461448 42.97614398 11.48828125 40.91015625 C10.67359375 40.09804687 9.85890625 39.2859375 9.01953125 38.44921875 C8.24609375 37.69382813 7.47265625 36.9384375 6.67578125 36.16015625 C1.59088738 30.49743353 -0.55725383 24.06970512 -2.76171875 16.91015625 C-3.03330811 16.03375488 -3.30489746 15.15735352 -3.5847168 14.25439453 C-5.90516371 6.21870151 -5.90516371 6.21870151 -4.32421875 2.16015625 C-2.32421875 0.16015625 -2.32421875 0.16015625 0 0 Z M-2.32421875 3.16015625 C-0.61547148 18.59066187 3.19887966 29.59650888 14.34326172 40.71020508 C15.67578125 42.16015625 15.67578125 42.16015625 17.375 45.03125 C20.62162742 48.03534498 23.1890161 47.67380199 27.4921875 47.59960938 C28.46027344 47.55771484 29.42835938 47.51582031 30.42578125 47.47265625 C31.90111328 47.43881836 31.90111328 47.43881836 33.40625 47.40429688 C35.83097595 47.3454443 38.25260108 47.26329056 40.67578125 47.16015625 C40.49880962 38.23946121 40.49880962 38.23946121 38.36328125 29.66015625 C34.74233422 26.29183343 30.72923336 24.41936454 26.2578125 22.359375 C23.67578125 21.16015625 23.67578125 21.16015625 22.67578125 20.16015625 C20.34280692 20.11922688 18.008729 20.11773902 15.67578125 20.16015625 C15.25575401 24.08678122 15.25575401 24.08678122 17.35546875 26.23046875 C18.07992187 26.90851563 18.804375 27.5865625 19.55078125 28.28515625 C20.27007812 28.96835938 20.989375 29.6515625 21.73046875 30.35546875 C22.37242187 30.95101562 23.014375 31.5465625 23.67578125 32.16015625 C24.33578125 32.82015625 24.99578125 33.48015625 25.67578125 34.16015625 C21.81050545 32.58541426 19.50783625 30.18979648 16.67578125 27.16015625 C16.14984375 26.639375 15.62390625 26.11859375 15.08203125 25.58203125 C10.37855062 20.66475605 7.41376114 15.27675633 4.51635742 9.17626953 C2.77132994 5.41786917 2.77132994 5.41786917 -0.5625 3.21875 C-1.14386719 3.19941406 -1.72523438 3.18007812 -2.32421875 3.16015625 Z " fill="#139884" transform="translate(201.32421875,205.83984375)"/>
<path d="M0 0 C2.19357898 1.17208673 2.19357898 1.17208673 4.3203125 0.1484375 C4.949375 -0.2640625 5.5784375 -0.6765625 6.2265625 -1.1015625 C11.94598032 -4.07565977 16.78430458 -5.10006447 23.2265625 -4.1015625 C30.61163578 -1.75226084 35.41171168 2.16966004 39.2265625 8.8984375 C41.15097514 14.67167541 40.83621502 20.78258464 39.1640625 26.5859375 C34.23716303 35.00934628 26.59206171 41.8349028 19.77416992 48.75585938 C18.6927103 49.85912857 17.61757409 50.96862882 16.54858398 52.08398438 C14.98547952 53.71389223 13.40364654 55.323317 11.81640625 56.9296875 C11.34436264 57.42956177 10.87231903 57.92943604 10.38597107 58.44445801 C7.97362767 60.8421702 6.49233484 61.85589649 3.10131836 62.39868164 C-0.12983609 61.8364196 -1.14999662 61.22553636 -3.359375 58.86328125 C-3.97603027 58.22221436 -4.59268555 57.58114746 -5.22802734 56.9206543 C-5.8617627 56.23269775 -6.49549805 55.54474121 -7.1484375 54.8359375 C-8.47989591 53.44351724 -9.81320702 52.05286603 -11.1484375 50.6640625 C-11.77878906 50.00212891 -12.40914062 49.34019531 -13.05859375 48.65820312 C-14.99228088 46.67386132 -17.01753695 44.85595973 -19.1484375 43.0859375 C-26.2803382 37.01523866 -33.83509337 30.20067961 -35.078125 20.52734375 C-35.39108243 14.47990162 -34.41162116 9.79326399 -30.7734375 4.8984375 C-21.50600386 -4.91072504 -11.79343255 -7.26045196 0 0 Z M-29.21484375 6.46875 C-32.58105243 11.32453535 -32.79963679 17.21661348 -31.7734375 22.8984375 C-29.3797468 29.03654174 -25.83769943 33.44982918 -21.21484375 38.05859375 C-20.58867661 38.69333115 -19.96250946 39.32806854 -19.31736755 39.98204041 C-18.00205887 41.30875655 -16.68158435 42.63036963 -15.35620117 43.94702148 C-13.32725181 45.9695959 -11.32654078 48.01755895 -9.32617188 50.06835938 C-8.04068393 51.35838859 -6.75362839 52.64685804 -5.46484375 53.93359375 C-4.8688588 54.5479982 -4.27287384 55.16240265 -3.65882874 55.79542542 C-0.46262097 58.97474156 -0.46262097 58.97474156 3.75610352 60.12451172 C7.22257433 58.4041227 9.75174267 55.96399384 12.4453125 53.24609375 C13.02567261 52.67193222 13.60603271 52.09777069 14.20397949 51.50621033 C15.42924061 50.28804432 16.64939562 49.06472385 17.86474609 47.83666992 C19.70489487 45.98276709 21.56754244 44.15395408 23.43359375 42.32617188 C34.3496752 31.54666617 34.3496752 31.54666617 38.7890625 17.2109375 C38.35768763 10.76301843 35.38108771 6.73078414 30.6640625 2.5234375 C25.89740194 -1.44701028 21.33219571 -1.47993993 15.30859375 -1.47265625 C11.33116372 -0.99375149 9.01707781 0.41663893 5.9453125 2.90234375 C4.2265625 3.8984375 4.2265625 3.8984375 2.13671875 3.64453125 C-0.16865082 2.74406992 -1.82271354 1.40867541 -3.7734375 -0.1015625 C-13.74197808 -3.42440936 -22.19954884 -1.17392901 -29.21484375 6.46875 Z " fill="#219E8C" transform="translate(246.7734375,170.1015625)"/>
<path d="M0 0 C2.64 0 5.28 0 8 0 C9.65 3.63 11.3 7.26 13 11 C14.32 7.37 15.64 3.74 17 0 C19.64 0 22.28 0 25 0 C25 7.59 25 15.18 25 23 C23.35 23 21.7 23 20 23 C19.67 19.04 19.34 15.08 19 11 C17.68 14.96 16.36 18.92 15 23 C13.35 22.67 11.7 22.34 10 22 C9.01 19.03 8.02 16.06 7 13 C6.67 16.3 6.34 19.6 6 23 C4.02 23 2.04 23 0 23 C0 15.41 0 7.82 0 0 Z " fill="#0F8787" transform="translate(166,301)"/>
<path d="M0 0 C3.3 0 6.6 0 10 0 C10 2.31 10 4.62 10 7 C12.31 7 14.62 7 17 7 C17 10.3 17 13.6 17 17 C14.69 17 12.38 17 10 17 C10 19.64 10 22.28 10 25 C6.7 25 3.4 25 0 25 C0 22.69 0 20.38 0 18 C-2.64 18 -5.28 18 -8 18 C-8.02688151 16.35425434 -8.04634123 14.70838587 -8.0625 13.0625 C-8.07410156 12.14597656 -8.08570313 11.22945312 -8.09765625 10.28515625 C-8 8 -8 8 -7 7 C-4.66702567 6.95907063 -2.33294775 6.95758277 0 7 C0 4.69 0 2.38 0 0 Z " fill="#199A87" transform="translate(245,184)"/>
<path d="M0 0 C11.93383575 -0.36163139 11.93383575 -0.36163139 15.890625 0.98046875 C18 3 18 3 18.62890625 6.90625 C18.63288737 8.43765481 18.60977476 9.96931988 18.5625 11.5 C18.57345703 12.27214844 18.58441406 13.04429687 18.59570312 13.83984375 C18.55319548 17.11009867 18.47217207 19.39725195 16.41796875 22.01953125 C11.26554282 24.10880251 5.44602028 23.15127834 0 23 C0 15.41 0 7.82 0 0 Z " fill="#0C8686" transform="translate(223,301)"/>
<path d="M0 0 C13.31915559 -0.36997654 13.31915559 -0.36997654 16.4296875 1.3203125 C18 3 18 3 18.375 6.0625 C18 9 18 9 16 11 C16.66 11.66 17.32 12.32 18 13 C18.55350773 19.08858502 18.55350773 19.08858502 16.9609375 21.7109375 C13.92772753 23.70488031 10.8071411 23.3137854 7.3125 23.1875 C4.899375 23.125625 2.48625 23.06375 0 23 C0 15.41 0 7.82 0 0 Z " fill="#0E8787" transform="translate(316,301)"/>
<path d="M0 0 C1.98 0 3.96 0 6 0 C6 2.97 6 5.94 6 9 C8.31 9 10.62 9 13 9 C13 6.03 13 3.06 13 0 C14.98 0 16.96 0 19 0 C19 7.59 19 15.18 19 23 C17.02 23 15.04 23 13 23 C13 20.03 13 17.06 13 14 C10.69 14 8.38 14 6 14 C6 16.97 6 19.94 6 23 C4.02 23 2.04 23 0 23 C0 15.41 0 7.82 0 0 Z " fill="#0D8686" transform="translate(263,301)"/>
<path d="M0 0 C4.31307379 1.87004805 5.51085972 5.62633379 7.48828125 9.72265625 C7.89498047 10.52896484 8.30167969 11.33527344 8.72070312 12.16601562 C9.72192229 14.15667491 10.70588542 16.15409842 11.67578125 18.16015625 C12.80113281 18.05574219 12.80113281 18.05574219 13.94921875 17.94921875 C22.34629689 17.50504081 26.92639858 19.35253705 33.67578125 24.16015625 C34.53300781 24.63839844 35.39023438 25.11664063 36.2734375 25.609375 C38.92411303 27.32046148 40.17257969 28.38644687 41.67578125 31.16015625 C42.20009458 33.95275558 42.59232731 36.59621257 42.86328125 39.41015625 C42.98606445 40.52777344 42.98606445 40.52777344 43.11132812 41.66796875 C43.31070119 43.49750981 43.49476599 45.32870776 43.67578125 47.16015625 C41.22302984 48.38653195 39.62520315 48.27430939 36.88671875 48.2578125 C35.94570312 48.25458984 35.0046875 48.25136719 34.03515625 48.24804688 C33.0503125 48.23966797 32.06546875 48.23128906 31.05078125 48.22265625 C29.56191406 48.21588867 29.56191406 48.21588867 28.04296875 48.20898438 C25.58717965 48.1971777 23.13151021 48.18071025 20.67578125 48.16015625 C20.67578125 47.83015625 20.67578125 47.50015625 20.67578125 47.16015625 C27.27578125 47.16015625 33.87578125 47.16015625 40.67578125 47.16015625 C40.40765625 44.95328125 40.13953125 42.74640625 39.86328125 40.47265625 C39.71246094 39.23128906 39.56164062 37.98992187 39.40625 36.7109375 C38.66091982 33.0879154 37.98550377 31.02860214 35.67578125 28.16015625 C32.79845023 26.31867131 32.79845023 26.31867131 29.55078125 24.91015625 C23.70717138 22.19154638 23.70717138 22.19154638 22.67578125 21.16015625 C20.34280692 21.11922688 18.008729 21.11773902 15.67578125 21.16015625 C17.17927502 24.82802018 19.31306917 26.84926018 22.30078125 29.41015625 C23.11804688 30.1165625 23.9353125 30.82296875 24.77734375 31.55078125 C25.40382812 32.081875 26.0303125 32.61296875 26.67578125 33.16015625 C26.34578125 33.82015625 26.01578125 34.48015625 25.67578125 35.16015625 C14.62569288 30.24900587 8.45455181 19.49403391 3.37768555 9.07495117 C2.54412854 7.40156006 1.61608574 5.77597882 0.67578125 4.16015625 C-0.31421875 3.83015625 -1.30421875 3.50015625 -2.32421875 3.16015625 C-2.13722412 3.81612793 -1.95022949 4.47209961 -1.75756836 5.14794922 C-0.91816458 8.10829726 -0.08981768 11.07162703 0.73828125 14.03515625 C1.03283203 15.06769531 1.32738281 16.10023438 1.63085938 17.1640625 C1.90478516 18.15019531 2.17871094 19.13632813 2.4609375 20.15234375 C2.7175415 21.0635498 2.97414551 21.97475586 3.23852539 22.91357422 C3.67578125 25.16015625 3.67578125 25.16015625 2.67578125 27.16015625 C2.01578125 27.16015625 1.35578125 27.16015625 0.67578125 27.16015625 C-0.36402837 23.93679123 -1.37763286 20.7057585 -2.38671875 17.47265625 C-2.68126953 16.56064453 -2.97582031 15.64863281 -3.27929688 14.70898438 C-3.55322266 13.82275391 -3.82714844 12.93652344 -4.109375 12.0234375 C-4.365979 11.21173096 -4.62258301 10.40002441 -4.88696289 9.5637207 C-5.39700812 6.76003824 -5.14524649 4.8788991 -4.32421875 2.16015625 C-2.32421875 0.16015625 -2.32421875 0.16015625 0 0 Z " fill="#169985" transform="translate(201.32421875,205.83984375)"/>
<path d="M0 0 C5.61 0 11.22 0 17 0 C17 1.65 17 3.3 17 5 C13.37 5 9.74 5 6 5 C6 6.32 6 7.64 6 9 C8.97 9 11.94 9 15 9 C15 10.65 15 12.3 15 14 C12.03 14 9.06 14 6 14 C6 15.32 6 16.64 6 18 C9.63 18 13.26 18 17 18 C17 19.65 17 21.3 17 23 C11.39 23 5.78 23 0 23 C0 15.41 0 7.82 0 0 Z " fill="#188C8C" transform="translate(199,301)"/>
<path d="M0 0 C1.98 0 3.96 0 6 0 C6.11644156 3.08301416 6.18732432 6.16546123 6.25 9.25 C6.30027344 10.55904297 6.30027344 10.55904297 6.3515625 11.89453125 C6.44942143 18.30429141 6.44942143 18.30429141 4.33203125 21.58203125 C1.48942166 23.31045216 -0.24988368 23.50510441 -3.5625 23.4375 C-4.51253906 23.43621094 -5.46257812 23.43492187 -6.44140625 23.43359375 C-9.44208508 22.92508176 -10.16269841 22.36828308 -12 20 C-12.34057617 17.9152832 -12.34057617 17.9152832 -12.29296875 15.55078125 C-12.28330078 14.70322266 -12.27363281 13.85566406 -12.26367188 12.98242188 C-12.23853516 12.10134766 -12.21339844 11.22027344 -12.1875 10.3125 C-12.17396484 9.41982422 -12.16042969 8.52714844 -12.14648438 7.60742188 C-12.11114079 5.40433834 -12.06180493 3.20247418 -12 1 C-10.35 1 -8.7 1 -7 1 C-6.67 6.61 -6.34 12.22 -6 18 C-4.35 18 -2.7 18 -1 18 C-0.505 9.09 -0.505 9.09 0 0 Z " fill="#098484" transform="translate(302,301)"/>
<path d="M0 0 C6.42151915 -0.70052936 9.80134782 0.47451746 15.015625 4.27734375 C19.10733666 7.82940052 21.74580318 11.93008456 22.203125 17.453125 C22.42045942 30.42074522 16.34483568 36.50705317 7.7766571 45.44511414 C5.69567914 47.59615953 3.59709014 49.72931925 1.49267578 51.85742188 C0.40528889 52.96154789 -0.67667965 54.07103393 -1.75341797 55.18554688 C-3.32627604 56.81300159 -4.91481431 58.42353363 -6.5078125 60.03125 C-6.9850174 60.53112427 -7.46222229 61.03099854 -7.95388794 61.54602051 C-10.268622 63.84633556 -11.54577517 64.95038863 -14.84326172 65.31054688 C-15.91084717 65.15682617 -15.91084717 65.15682617 -17 65 C-17 64.34 -17 63.68 -17 63 C-16.13125244 62.61658447 -15.26250488 62.23316895 -14.36743164 61.83813477 C-10.73781352 59.85688378 -8.01642868 57.48401279 -5.12109375 54.58984375 C-4.58654068 54.06290421 -4.05198761 53.53596466 -3.50123596 52.99305725 C-2.37727389 51.87985031 -1.25720549 50.76269967 -0.14086914 49.6418457 C1.54748166 47.95252695 3.25595617 46.28563989 4.96679688 44.61914062 C12.01595088 37.64875245 18.79547392 30.7152191 19.5625 20.3125 C19.16483247 14.21851374 16.48564601 10.52019592 12.3125 6.25 C8.65561912 3.40158121 4.41945853 2.20798533 0 1 C0 0.67 0 0.34 0 0 Z " fill="#0F9682" transform="translate(265,167)"/>
<path d="M0 0 C8.25 0 16.5 0 25 0 C25 2.31 25 4.62 25 7 C16.75 7 8.5 7 0 7 C0 4.69 0 2.38 0 0 Z " fill="#FBFDFD" transform="translate(220,256)"/>
<path d="M0 0 C1.65 0 3.3 0 5 0 C5 2.31 5 4.62 5 7 C7.64 7 10.28 7 13 7 C13 8.65 13 10.3 13 12 C10.36 12 7.72 12 5 12 C5 14.64 5 17.28 5 20 C3.35 20 1.7 20 0 20 C0 17.36 0 14.72 0 12 C-2.31 12 -4.62 12 -7 12 C-7 10.35 -7 8.7 -7 7 C-4.69 7 -2.38 7 0 7 C0 4.69 0 2.38 0 0 Z " fill="#F2F9F8" transform="translate(247,187)"/>
<path d="M0 0 C7.92 0 15.84 0 24 0 C24 2.31 24 4.62 24 7 C16.08 7 8.16 7 0 7 C0 4.69 0 2.38 0 0 Z " fill="#FFFFFF" transform="translate(255,256)"/>
<path d="M0 0 C0.70125 0.00515625 1.4025 0.0103125 2.125 0.015625 C2.82625 0.01046875 3.5275 0.0053125 4.25 0 C6.125 0.265625 6.125 0.265625 8.125 2.265625 C8.390625 4.578125 8.390625 4.578125 8.375 7.265625 C8.38015625 8.1525 8.3853125 9.039375 8.390625 9.953125 C8.125 12.265625 8.125 12.265625 6.125 14.265625 C4.25 14.53125 4.25 14.53125 2.125 14.515625 C1.42375 14.52078125 0.7225 14.5259375 0 14.53125 C-1.875 14.265625 -1.875 14.265625 -3.875 12.265625 C-4.140625 9.953125 -4.140625 9.953125 -4.125 7.265625 C-4.13015625 6.37875 -4.1353125 5.491875 -4.140625 4.578125 C-3.80306577 1.63937407 -3.01925908 0.42772837 0 0 Z " fill="#138989" transform="translate(268.875,335.734375)"/>
<path d="M0 0 C3.5 0.1875 3.5 0.1875 5.5 1.1875 C5.52686553 3.16659398 5.54633375 5.14578971 5.5625 7.125 C5.57410156 8.22714844 5.58570313 9.32929688 5.59765625 10.46484375 C5.5 13.1875 5.5 13.1875 4.5 14.1875 C3.00261876 14.2854057 1.50057108 14.31724864 0 14.3125 C-0.8146875 14.31507813 -1.629375 14.31765625 -2.46875 14.3203125 C-4.5 14.1875 -4.5 14.1875 -5.5 13.1875 C-5.62487758 11.37822719 -5.67570846 9.56353893 -5.6875 7.75 C-5.70167969 6.76128906 -5.71585938 5.77257812 -5.73046875 4.75390625 C-5.35276518 0.54795296 -4.09701168 0.21948277 0 0 Z " fill="#0A8585" transform="translate(208.5,335.8125)"/>
<path d="M0 0 C1.258125 -0.04125 2.51625 -0.0825 3.8125 -0.125 C4.52019531 -0.14820313 5.22789062 -0.17140625 5.95703125 -0.1953125 C8 0 8 0 11 2 C11.36328125 4.3125 11.36328125 4.3125 11.3125 7 C11.30863281 7.886875 11.30476562 8.77375 11.30078125 9.6875 C11 12 11 12 9 14 C5.98173347 14.27240673 3.03629378 14.08675125 0 14 C0 9.38 0 4.76 0 0 Z " fill="#108888" transform="translate(181,336)"/>
<path d="M0 0 C1.98 0 3.96 0 6 0 C6 7.59 6 15.18 6 23 C4.02 23 2.04 23 0 23 C0 15.41 0 7.82 0 0 Z " fill="#0F8787" transform="translate(249,301)"/>
<path d="M0 0 C6.8359375 -0.1953125 6.8359375 -0.1953125 9 0 C11 2 11 2 11.1875 4.4375 C11 7 11 7 10 10 C10.38932856 12.14255793 10.38932856 12.14255793 11 14 C9.68 14 8.36 14 7 14 C6.67 12.35 6.34 10.7 6 9 C5.01 9 4.02 9 3 9 C3 10.65 3 12.3 3 14 C2.01 14 1.02 14 0 14 C0 9.38 0 4.76 0 0 Z " fill="#259292" transform="translate(288,336)"/>
<path d="M0 0 C3.33689231 1.11229744 5.95806633 2.75092307 8.88671875 4.67578125 C10.42472391 5.6834398 12.01768275 6.60704597 13.625 7.5 C16.16750783 9.17079086 17.25465682 10.30863963 18.8125 12.9375 C19.33681333 15.73009933 19.72904606 18.37355632 20 21.1875 C20.1227832 22.30511719 20.1227832 22.30511719 20.24804688 23.4453125 C20.44741994 25.27485356 20.63148474 27.10605151 20.8125 28.9375 C18.35974859 30.1638757 16.7619219 30.05165314 14.0234375 30.03515625 C13.08242187 30.03193359 12.14140625 30.02871094 11.171875 30.02539062 C9.69460937 30.01282227 9.69460937 30.01282227 8.1875 30 C7.19492188 29.99548828 6.20234375 29.99097656 5.1796875 29.98632812 C2.7238984 29.97452145 0.26822896 29.958054 -2.1875 29.9375 C-2.1875 29.6075 -2.1875 29.2775 -2.1875 28.9375 C4.4125 28.9375 11.0125 28.9375 17.8125 28.9375 C17.544375 26.730625 17.27625 24.52375 17 22.25 C16.84917969 21.00863281 16.69835937 19.76726562 16.54296875 18.48828125 C15.79957531 14.87467355 15.10280202 12.80787851 12.8125 9.9375 C10.108539 8.12654986 10.108539 8.12654986 7 6.75 C5.98292969 6.26144531 4.96585938 5.77289063 3.91796875 5.26953125 C0.92097117 3.98402663 -2.07880646 2.91796986 -5.1875 1.9375 C-2.1875 -0.0625 -2.1875 -0.0625 0 0 Z " fill="#229E8C" transform="translate(224.1875,224.0625)"/>
<path d="M0 0 C3.3 0 6.6 0 10 0 C10 2.31 10 4.62 10 7 C12.31 7 14.62 7 17 7 C17 7.33 17 7.66 17 8 C14.03 8 11.06 8 8 8 C7.67 8.66 7.34 9.32 7 10 C7 7.69 7 5.38 7 3 C5.35 3 3.7 3 2 3 C2 5.31 2 7.62 2 10 C-0.31 10 -2.62 10 -5 10 C-5 11.65 -5 13.3 -5 15 C-5.66 15 -6.32 15 -7 15 C-7 15.66 -7 16.32 -7 17 C-4.69 17 -2.38 17 0 17 C0 17.33 0 17.66 0 18 C-2.64 18 -5.28 18 -8 18 C-8.02688151 16.35425434 -8.04634123 14.70838587 -8.0625 13.0625 C-8.07410156 12.14597656 -8.08570313 11.22945312 -8.09765625 10.28515625 C-8 8 -8 8 -7 7 C-4.66702567 6.95907063 -2.33294775 6.95758277 0 7 C0 4.69 0 2.38 0 0 Z " fill="#37A797" transform="translate(245,184)"/>
<path d="M0 0 C2.01822917 0.06510417 4.03645833 0.13020833 6.0546875 0.1953125 C6.0546875 1.1853125 6.0546875 2.1753125 6.0546875 3.1953125 C4.0746875 3.1953125 2.0946875 3.1953125 0.0546875 3.1953125 C0.0546875 3.8553125 0.0546875 4.5153125 0.0546875 5.1953125 C3.0246875 5.6903125 3.0246875 5.6903125 6.0546875 6.1953125 C6.09710473 8.52826025 6.09561687 10.86233817 6.0546875 13.1953125 C5.0546875 14.1953125 5.0546875 14.1953125 2.98828125 14.29296875 C2.16457031 14.28136719 1.34085937 14.26976562 0.4921875 14.2578125 C-0.33410156 14.24878906 -1.16039062 14.23976563 -2.01171875 14.23046875 C-2.64980469 14.21886719 -3.28789062 14.20726562 -3.9453125 14.1953125 C-3.9453125 13.2053125 -3.9453125 12.2153125 -3.9453125 11.1953125 C-1.6353125 11.1953125 0.6746875 11.1953125 3.0546875 11.1953125 C3.0546875 10.5353125 3.0546875 9.8753125 3.0546875 9.1953125 C2.2709375 9.2365625 1.4871875 9.2778125 0.6796875 9.3203125 C-1.9453125 9.1953125 -1.9453125 9.1953125 -3.9453125 7.1953125 C-4.1953125 4.6953125 -4.1953125 4.6953125 -3.9453125 2.1953125 C-1.9453125 0.1953125 -1.9453125 0.1953125 0 0 Z " fill="#1B8D8D" transform="translate(312.9453125,335.8046875)"/>
<path d="M0 0 C2.5 0.125 2.5 0.125 5 1 C6.3125 3.0625 6.3125 3.0625 7 5 C4.61435923 4.42415568 2.33317216 3.77772405 0 3 C0.18699463 3.65597168 0.37398926 4.31194336 0.56665039 4.98779297 C1.40605417 7.94814101 2.23440107 10.91147078 3.0625 13.875 C3.35705078 14.90753906 3.65160156 15.94007813 3.95507812 17.00390625 C4.22900391 17.99003906 4.50292969 18.97617188 4.78515625 19.9921875 C5.04176025 20.90339355 5.29836426 21.81459961 5.56274414 22.75341797 C6 25 6 25 5 27 C4.34 27 3.68 27 3 27 C1.96019038 23.77663498 0.94658589 20.54560225 -0.0625 17.3125 C-0.35705078 16.40048828 -0.65160156 15.48847656 -0.95507812 14.54882812 C-1.22900391 13.66259766 -1.50292969 12.77636719 -1.78515625 11.86328125 C-2.04176025 11.05157471 -2.29836426 10.23986816 -2.56274414 9.40356445 C-3.07278937 6.59988199 -2.82102774 4.71874285 -2 2 C-1.34 1.34 -0.68 0.68 0 0 Z " fill="#27A18E" transform="translate(199,206)"/>
<path d="M0 0 C1.65 0 3.3 0 5 0 C7 2 7 2 7.23046875 4.34765625 C7.21628906 5.24355469 7.20210937 6.13945312 7.1875 7.0625 C7.18105469 7.96097656 7.17460937 8.85945313 7.16796875 9.78515625 C7 12 7 12 6 13 C4.02 13 2.04 13 0 13 C0 8.71 0 4.42 0 0 Z " fill="#EFF7F7" transform="translate(229,306)"/>
<path d="M0 0 C2.01822917 0.06510417 4.03645833 0.13020833 6.0546875 0.1953125 C6.0546875 1.1853125 6.0546875 2.1753125 6.0546875 3.1953125 C4.0746875 3.1953125 2.0946875 3.1953125 0.0546875 3.1953125 C0.0546875 5.8353125 0.0546875 8.4753125 0.0546875 11.1953125 C2.0346875 11.1953125 4.0146875 11.1953125 6.0546875 11.1953125 C6.0546875 12.1853125 6.0546875 13.1753125 6.0546875 14.1953125 C0 14.390625 0 14.390625 -1.9453125 14.1953125 C-3.9453125 12.1953125 -3.9453125 12.1953125 -4.2109375 9.8828125 C-4.20578125 8.9959375 -4.200625 8.1090625 -4.1953125 7.1953125 C-4.20046875 6.3084375 -4.205625 5.4215625 -4.2109375 4.5078125 C-3.86856015 1.52711553 -3.08114197 0.3093516 0 0 Z " fill="#219090" transform="translate(228.9453125,335.8046875)"/>
<path d="M0 0 C3.63 0 7.26 0 11 0 C11 0.99 11 1.98 11 3 C9.68 3 8.36 3 7 3 C7 6.63 7 10.26 7 14 C6.01 14 5.02 14 4 14 C4 10.37 4 6.74 4 3 C2.68 3 1.36 3 0 3 C0 2.01 0 1.02 0 0 Z " fill="#0B8585" transform="translate(244,336)"/>
<path d="M0 0 C6.42084715 -0.70045605 9.80841704 0.46952973 15.015625 4.28515625 C19.15897036 7.86572439 21.36081014 11.56688616 22 17 C18.2444673 15.74815577 17.96189889 14.17070172 16.1484375 10.84375 C12.323303 4.70271774 6.64475401 2.81623276 0 1 C0 0.67 0 0.34 0 0 Z " fill="#229E8C" transform="translate(265,167)"/>
<path d="M0 0 C0.66 0 1.32 0 2 0 C2 4.29 2 8.58 2 13 C1.01 12.34 0.02 11.68 -1 11 C-1 8.69 -1 6.38 -1 4 C-8.92 4 -16.84 4 -25 4 C-25 3.67 -25 3.34 -25 3 C-24.31373535 2.98018066 -23.6274707 2.96036133 -22.92041016 2.93994141 C-19.82154221 2.84489055 -16.72336706 2.73513153 -13.625 2.625 C-12.54476563 2.5940625 -11.46453125 2.563125 -10.3515625 2.53125 C-9.3203125 2.49257812 -8.2890625 2.45390625 -7.2265625 2.4140625 C-6.27346191 2.3826416 -5.32036133 2.3512207 -4.33837891 2.31884766 C-1.81104824 2.21444204 -1.81104824 2.21444204 0 0 Z " fill="#3BA999" transform="translate(280,252)"/>
<path d="M0 0 C0.66 0 1.32 0 2 0 C2 0.99 2 1.98 2 3 C1.236875 3.7425 0.47375 4.485 -0.3125 5.25 C-4.74544403 9.78603576 -6.24342421 14.79607851 -7 21 C-7.33 21 -7.66 21 -8 21 C-8.59447876 15.01117696 -8.88469849 10.3926366 -5.125 5.4375 C-3.48672412 3.53409251 -1.77615947 1.77615947 0 0 Z " fill="#1A9B88" transform="translate(221,170)"/>
<path d="M0 0 C-0.33 0.99 -0.66 1.98 -1 3 C-1.99580078 3.07347656 -1.99580078 3.07347656 -3.01171875 3.1484375 C-9.7112236 3.71125812 -9.7112236 3.71125812 -16 6 C-15.8125 4.125 -15.8125 4.125 -15 2 C-10.51650857 -0.89257512 -5.13028158 -0.17931081 0 0 Z " fill="#33A694" transform="translate(239,166)"/>
<path d="M0 0 C1.65 0 3.3 0 5 0 C5 2.64 5 5.28 5 8 C3.35 8 1.7 8 0 8 C0 5.36 0 2.72 0 0 Z " fill="#ECF5F5" transform="translate(206,339)"/>
<path d="M0 0 C1.32 0 2.64 0 4 0 C4 2.64 4 5.28 4 8 C2.35 8 0.7 8 -1 8 C-1.04241723 5.66705225 -1.04092937 3.33297433 -1 1 C-0.67 0.67 -0.34 0.34 0 0 Z " fill="#E8F3F3" transform="translate(269,339)"/>
<path d="M0 0 C0.33 0.99 0.66 1.98 1 3 C1.66 3 2.32 3 3 3 C3.33 4.98 3.66 6.96 4 9 C1.54724859 10.2263757 -0.0505781 10.11415314 -2.7890625 10.09765625 C-3.73007813 10.09443359 -4.67109375 10.09121094 -5.640625 10.08789062 C-6.62546875 10.07951172 -7.6103125 10.07113281 -8.625 10.0625 C-10.11386719 10.05573242 -10.11386719 10.05573242 -11.6328125 10.04882812 C-14.0886016 10.03702145 -16.54427104 10.020554 -19 10 C-19 9.67 -19 9.34 -19 9 C-12.4 9 -5.8 9 1 9 C0.67 6.03 0.34 3.06 0 0 Z " fill="#40AC9B" transform="translate(241,244)"/>
<path d="M0 0 C2.97 0 5.94 0 9 0 C9 2.64 9 5.28 9 8 C10.65 8 12.3 8 14 8 C14 8.33 14 8.66 14 9 C11.69 9 9.38 9 7 9 C7 6.69 7 4.38 7 2 C4.69 2 2.38 2 0 2 C0 1.34 0 0.68 0 0 Z " fill="#05927D" transform="translate(238,199)"/>
<path d="M0 0 C0.33 0.66 0.66 1.32 1 2 C1.66 2 2.32 2 3 2 C2.01 5.96 1.02 9.92 0 14 C-0.99 14 -1.98 14 -3 14 C-2.40380045 9.13103697 -1.43023178 4.67209049 0 0 Z " fill="#2EA492" transform="translate(298,219)"/>
<path d="M0 0 C2.475 0.495 2.475 0.495 5 1 C5.19294408 5.82360189 4.75747614 9.49646738 3 14 C2.34 14 1.68 14 1 14 C1.33 9.71 1.66 5.42 2 1 C1.34 0.67 0.68 0.34 0 0 Z " fill="#179A86" transform="translate(298,207)"/>
<path d="M0 0 C1.32 0 2.64 0 4 0 C4 2.64 4 5.28 4 8 C2.68 8 1.36 8 0 8 C0 5.36 0 2.72 0 0 Z " fill="#DFEFEF" transform="translate(184,339)"/>
<path d="M0 0 C1.98 0 3.96 0 6 0 C6 1.32 6 2.64 6 4 C4.02 4 2.04 4 0 4 C0 2.68 0 1.36 0 0 Z " fill="#FEFEFE" transform="translate(322,315)"/>
<path d="M0 0 C1.98 0 3.96 0 6 0 C6 1.32 6 2.64 6 4 C4.02 4 2.04 4 0 4 C0 2.68 0 1.36 0 0 Z " fill="#F9FCFC" transform="translate(322,306)"/>
<path d="M0 0 C-1.23263349 3.69790046 -2.20052451 3.9354846 -5.5625 5.6875 C-6.80193359 6.34298828 -6.80193359 6.34298828 -8.06640625 7.01171875 C-8.70449219 7.33785156 -9.34257812 7.66398438 -10 8 C-9.00344362 4.31274141 -8.3417689 3.20648538 -5 1.1875 C-2 0 -2 0 0 0 Z " fill="#0F9682" transform="translate(270,228)"/>
<path d="M0 0 C1.32 0.33 2.64 0.66 4 1 C3.67 1.66 3.34 2.32 3 3 C2.01 3.33 1.02 3.66 0 4 C-1.21869929 6.50447516 -1.21869929 6.50447516 -2 9 C-2.66 7.68 -3.32 6.36 -4 5 C-2.68 3.35 -1.36 1.7 0 0 Z " fill="#2AA290" transform="translate(297,206)"/>
<path d="M0 0 C1.485 0.99 1.485 0.99 3 2 C3.29296875 4.3828125 3.29296875 4.3828125 3.1875 7.125 C3.16042969 8.03507813 3.13335937 8.94515625 3.10546875 9.8828125 C3.07066406 10.58148438 3.03585938 11.28015625 3 12 C2.34 12 1.68 12 1 12 C-0.26237731 9.47524538 -0.09856404 7.68799534 -0.0625 4.875 C-0.05347656 3.96492187 -0.04445312 3.05484375 -0.03515625 2.1171875 C-0.02355469 1.41851562 -0.01195312 0.71984375 0 0 Z " fill="#46AE9E" transform="translate(212,183)"/>
<path d="M0 0 C8.57142857 -0.28571429 8.57142857 -0.28571429 12 2 C11.67 2.99 11.34 3.98 11 5 C7.37 3.68 3.74 2.36 0 1 C0 0.67 0 0.34 0 0 Z " fill="#119783" transform="translate(265,167)"/>
<path d="M0 0 C8.57142857 -0.28571429 8.57142857 -0.28571429 12 2 C12 2.66 12 3.32 12 4 C7.80530429 3.40075776 3.99000166 2.42500059 0 1 C0 0.67 0 0.34 0 0 Z " fill="#109682" transform="translate(234,167)"/>
<path d="M0 0 C6.75 1.625 6.75 1.625 9 5 C5.30581799 5 3.22163822 3.71820705 0 2 C0 1.34 0 0.68 0 0 Z " fill="#159985" transform="translate(231,229)"/>
<path d="M0 0 C0.33 0.99 0.66 1.98 1 3 C1.66 3 2.32 3 3 3 C3.33 4.98 3.66 6.96 4 9 C3.01 8.67 2.02 8.34 1 8 C0.67 5.36 0.34 2.72 0 0 Z " fill="#33A695" transform="translate(241,244)"/>
<path d="M0 0 C2.475 0.99 2.475 0.99 5 2 C5 2.99 5 3.98 5 5 C3.125 4.6875 3.125 4.6875 1 4 C0.34 3.01 -0.32 2.02 -1 1 C-0.67 0.67 -0.34 0.34 0 0 Z " fill="#25A08D" transform="translate(246,170)"/>
</svg>
